<?xml version="1.0" encoding="utf-8"?>
<!-- Generator: Adobe Illustrator 27.5.0, SVG Export Plug-In . SVG Version: 6.00 Build 0)  -->
<svg version="1.1" id="Layer_1" xmlns="http://www.w3.org/2000/svg" xmlns:xlink="http://www.w3.org/1999/xlink" x="0px" y="0px"
	 viewBox="0 0 3000 2000" style="enable-background:new 0 0 3000 2000;" xml:space="preserve">
<g>
	<rect style="fill:transparent;" width="3000" height="2000"/>
	<g>
		<path style="opacity:0.3;fill:none;stroke:#C89B35;stroke-width:4.1673;stroke-miterlimit:10;" d="M282.232,1181.664
			c16.083,78.429,42.277,156.186,78.482,225.549c66.468,127.34,180.756,231.399,324.945,257.286
			c50.087,8.992,101.422,10.327,152.103,6.705c214.362-15.32,423.683-68.814,636.308-97.763
			c210.55-28.667,410.813,2.661,621.412,11.307c112.688,4.625,245.793-8.626,342.001-74.41
			c94.007-64.28,169.584-163.711,214.795-270.615c122.492-289.639,25.937-663.618-228.134-840.794
			c-136.711-95.335-321.167-89.651-474.323-50.661c-96.994,24.693-191.058,63.113-292.16,65.372
			c-150.999,3.374-293.276-67.374-438.684-110.549c-239.88-71.263-518.335-60.296-712.11,102.906
			c-195.53,164.644-264.559,436.015-238.973,682.707C271.085,1119.477,275.867,1150.623,282.232,1181.664z"/>
		<g>
			<defs>
				<path id="SVGID_1_" d="M2773.918,1116.407c-29.046,200.029-127.727,411.185-316.462,483.528
					c-78.136,29.963-163.899,32.88-247.536,30.13c-226.343-7.402-448.87-53.406-673.917-74.588
					c-222.85-20.975-432.52,18.037-653.962,34.61c-118.49,8.867-259.181,0.509-363.07-62.091
					c-101.513-61.169-184.993-158.399-236.787-264.283c-140.327-286.877-53.278-666.814,207.35-854.6
					c140.239-101.044,334.711-102.221,497.524-68.712c103.11,21.221,203.671,56.367,310.23,54.86
					c159.148-2.25,306.211-78.761,457.65-127.643c249.828-80.679,543.495-80.053,753.942,76.928
					C2737.871,515.32,2814.966,833.699,2773.918,1116.407z"/>
			</defs>
			<clipPath id="SVGID_00000116938708284539789370000014896462356130107581_">
				<use xlink:href="#SVGID_1_"  style="overflow:visible;"/>
			</clipPath>
			<path style="clip-path:url(#SVGID_00000116938708284539789370000014896462356130107581_);fill:#FFFFFF;" d="M2773.918,1116.407
				c-29.046,200.029-127.727,411.185-316.462,483.528c-78.136,29.963-163.899,32.88-247.536,30.13
				c-226.343-7.402-448.87-53.406-673.917-74.588c-222.85-20.975-432.52,18.037-653.962,34.61
				c-118.49,8.867-259.181,0.509-363.07-62.091c-101.513-61.169-184.993-158.399-236.787-264.283
				c-140.327-286.877-53.278-666.814,207.35-854.6c140.239-101.044,334.711-102.221,497.524-68.712
				c103.11,21.221,203.671,56.367,310.23,54.86c159.148-2.25,306.211-78.761,457.65-127.643
				c249.828-80.679,543.495-80.053,753.942,76.928C2737.871,515.32,2814.966,833.699,2773.918,1116.407z"/>
			<g style="opacity:0.15;clip-path:url(#SVGID_00000116938708284539789370000014896462356130107581_);">
				<path style="fill:#E6F5FC;" d="M2773.918,1116.407c-29.046,200.029-127.727,411.185-316.462,483.528
					c-78.136,29.963-163.899,32.88-247.536,30.13c-226.343-7.402-448.87-53.406-673.917-74.588
					c-222.85-20.975-432.52,18.037-653.962,34.61c-118.49,8.867-259.181,0.509-363.07-62.091
					c-101.513-61.169-184.993-158.399-236.787-264.283c-140.327-286.877-53.278-666.814,207.35-854.6
					c140.239-101.044,334.711-102.221,497.524-68.712c103.11,21.221,203.671,56.367,310.23,54.86
					c159.148-2.25,306.211-78.761,457.65-127.643c249.828-80.679,543.495-80.053,753.942,76.928
					C2737.871,515.32,2814.966,833.699,2773.918,1116.407z"/>
			</g>
			<g style="clip-path:url(#SVGID_00000116938708284539789370000014896462356130107581_);">
				<path style="fill:#FFFFFF;" d="M2528.588,198.141v824.375h-651.223V198.141H2528.588 M2533.388,193.341h-660.823v833.975
					h660.823V193.341L2533.388,193.341z"/>
				<polygon style="opacity:0.4;fill:#FFFFFF;" points="2478.211,193.357 2478.211,252.907 1927.714,662.383 1927.714,518.154
					2364.361,193.357 				"/>
				<polygon style="opacity:0.4;fill:#FFFFFF;" points="2478.211,483.857 2478.211,628.045 2076.194,927.129 1927.714,927.129
					1927.714,893.333 				"/>
				<path style="fill:#FFFFFF;" d="M2473.411,198.157V922.33h-540.896V198.157H2473.411 M2478.211,193.357h-550.496V927.13h550.496
					V193.357L2478.211,193.357z"/>
				<path style="fill:#FFFFFF;" d="M2231.626,202.684V922.3h-57.299V202.684H2231.626 M2236.426,197.884h-66.899V927.1h66.899
					V197.884L2236.426,197.884z"/>
				<g>

						<line style="fill:none;stroke:#FFFFFF;stroke-width:4.8;stroke-miterlimit:10;" x1="1927.732" y1="439.332" x2="2478.221" y2="439.332"/>

						<line style="fill:none;stroke:#FFFFFF;stroke-width:4.8;stroke-miterlimit:10;" x1="1927.732" y1="681.15" x2="2478.221" y2="681.15"/>
				</g>
			</g>
			<g style="clip-path:url(#SVGID_00000116938708284539789370000014896462356130107581_);">
				<path style="fill:#FFFFFF;" d="M1176.213,198.141v824.375H524.99V198.141H1176.213 M1181.013,193.341H520.19v833.975h660.823
					V193.341L1181.013,193.341z"/>
				<polygon style="opacity:0.4;fill:#FFFFFF;" points="1125.836,193.357 1125.836,252.907 575.34,662.383 575.34,518.154
					1011.986,193.357 				"/>
				<polygon style="opacity:0.4;fill:#FFFFFF;" points="1125.836,483.857 1125.836,628.045 723.819,927.129 575.34,927.129
					575.34,893.333 				"/>
				<path style="fill:#FFFFFF;" d="M1121.036,198.157V922.33H580.14V198.157H1121.036 M1125.836,193.357H575.34V927.13h550.496
					V193.357L1125.836,193.357z"/>
				<path style="fill:#FFFFFF;" d="M879.251,202.684V922.3h-57.299V202.684H879.251 M884.051,197.884h-66.899V927.1h66.899V197.884
					L884.051,197.884z"/>
				<g>

						<line style="fill:none;stroke:#FFFFFF;stroke-width:4.8;stroke-miterlimit:10;" x1="575.357" y1="439.332" x2="1125.846" y2="439.332"/>

						<line style="fill:none;stroke:#FFFFFF;stroke-width:4.8;stroke-miterlimit:10;" x1="575.357" y1="681.15" x2="1125.846" y2="681.15"/>
				</g>
			</g>
			<g style="clip-path:url(#SVGID_00000116938708284539789370000014896462356130107581_);">

					<line style="fill:none;stroke:#102048;stroke-width:4.1673;stroke-miterlimit:10;" x1="1515.833" y1="205.146" x2="1515.833" y2="556.983"/>
				<path style="fill:#1F3C88;" d="M1595.539,631.846c0-51.708-35.686-93.625-79.706-93.625s-79.706,41.917-79.706,93.625H1595.539z
					"/>
			</g>
		</g>
	</g>
	<g>
		<g>
			
				<line style="fill:none;stroke:#102048;stroke-width:4.1673;stroke-miterlimit:10;" x1="1511.666" y1="1220.492" x2="1511.666" y2="1768.027"/>
			<rect x="1431.793" y="1753.208" style="fill:#1F3C88;" width="159.745" height="29.638"/>
		</g>
		<rect x="1059.517" y="1204.517" style="fill:#D3DFFF;" width="904.298" height="31.949"/>
	</g>
	<g>
		<g>
			<path style="fill:#102048;" d="M756.367,1583.203c0,0,39.273,60.416,114.472,69.296l-24.309-81.262L756.367,1583.203z"/>
			<g>
				<polygon style="fill:#F9B384;" points="855.217,1598.434 792.9,1553.659 766.099,1628.249 821,1672.476 				"/>
				<path style="fill:#102048;" d="M706.589,1679.112l116.464,101.408c3.13,2.725,7.885-0.3,6.743-4.289l-22.441-78.406
					l19.054-35.219l-59.832-34.904v0c-19.684,12.136-37.589,26.944-53.203,44L706.589,1679.112z"/>
			</g>
			<path style="fill:#1F3C88;" d="M806.923,1237.525c168.798,11.886,217.41,1.939,239.976,69.785
				c28.66,86.169-176.06,345.189-176.06,345.189s-36.686-53.936-114.472-69.296l106.25-225.886L806.923,1237.525z"/>
		</g>
		<g>

				<line style="fill:none;stroke:#102048;stroke-width:4.1673;stroke-miterlimit:10;" x1="593.217" y1="1411.731" x2="593.217" y2="1763.568"/>
			<path style="fill:#7DA1FB;" d="M643.723,1206.063c-48.618,0-72.233-134.742-135.259-115.59
				c-170.64,51.852-45.323,505.925,297.997,302.197L643.723,1206.063z"/>
			<path style="fill:#1F3C88;" d="M513.511,1782.33c0-20.724,35.686-37.524,79.706-37.524c44.02,0,79.706,16.8,79.706,37.524
				H513.511z"/>
		</g>
		<g>
			<path style="fill:#6F3428;" d="M1137.041,1013.403c22.117,11.624,37.262,28.872,41.482,54.935l-42.715,1.437L1137.041,1013.403z"
				/>
			<g>
				<path style="fill:#E28B6D;" d="M1161.748,994.786c0,0,5.958-9.189,24.605-10.277c17.395-1.015,32.044-0.048,46.8-6.541
					c2.15-0.946,4.334-1.818,6.608-2.407l7.79-2.016l0.622,14.496c0,0-21.29,12.312-33.981,10.148c0,0,5.38,8.584,51.422,7.358
					c0,0,15.831-6.382,24.234-4.556c4.668,1.014,7.879,5.49,7.879,5.49l-35.22,17.44l-86.866-1.231L1161.748,994.786z"/>
				<path style="fill:#E28B6D;" d="M1282.698,974.852l-6.273,42.168l-13.918,6.901l-33.465-0.474l34.628-16.873
					C1263.67,1006.574,1270.304,972.998,1282.698,974.852z"/>
				<path style="fill:#F9B384;" d="M1252.491,968.401l8.957,39.364l-12.74,15.96l-30.711,6.814l27.136-25.146
					C1245.133,1005.393,1240.916,973.204,1252.491,968.401z"/>
				<path style="fill:#F9B384;" d="M1119.423,1027.277l42.325-32.492l45.691,15.987l19.323-3.726c0,0-8.273-26.391,3.329-32.532
					c0,0,9.996,13.646,12.406,33.366c0.431,3.525-17.363,20.893-17.363,20.893c-4.557,2.963-41.657,4.479-41.657,4.479
					l-39.038,46.346L1119.423,1027.277z"/>
			</g>
			<path style="fill:#446373;" d="M986.828,1108.323c1.261,1.08,150.213-94.92,150.213-94.92
				c4.762,27.198,20.893,43.252,41.482,54.935l-89.031,81.657L986.828,1108.323z"/>
		</g>
		<path style="fill:#102048;" d="M978.494,1671.927c0,0,73.343,26.024,139.235-22.901l-84.714-40.631L978.494,1671.927z"/>
		<g>
			<polygon style="fill:#F9B384;" points="1064.617,1624.022 988.217,1631.176 1016.986,1705.03 1087.434,1702.332 			"/>
			<path style="fill:#102048;" d="M1006.622,1782.468h153.309c4.15,0,5.75-5.404,2.269-7.663l-68.412-44.395l-6.354-28.35
				l-70.448,2.243v0c-6.869,22.058-10.363,45.028-10.363,68.131V1782.468z"/>
		</g>
		<path style="fill:#F9B384;" d="M908.495,860.066l-3.709,37.005l-6.167,61.134l-81.262-18.961c0,0,19.503-54.425,27.462-75.594
			c1.792-4.876,3-7.959,3.25-8.251l10.96,0.833L908.495,860.066z"/>
		<path style="fill:#E28B6D;" d="M908.495,860.066l-4.307,42.909c-22.744-1.764-45.684-12.392-59.166-39.877l14.007-6.866
			L908.495,860.066z"/>
		<path style="fill:#F9B384;" d="M911.62,878.444c-50.007,12.877-84.971-32.833-84.971-32.833l-3.417-29.468l-0.458-2.667
			l-7.709-47.173l36.089-45.84l82.554,20.545c0.042,0.042,0,0.042,0,0.042c3.709,8.793,6.918,17.836,9.543,26.879
			c1.333,4.626,2.542,9.293,3.542,13.877C956.668,826.645,950.001,868.567,911.62,878.444z"/>
		<path style="fill:#102048;" d="M943.708,770.47c-30.046-56.008-63.676-40.881-84.762-23.92
			c-29.713,23.92-25.295,68.218-25.295,68.218l-10.418,1.375l-14.752,1.917l-13.21,4.834c-34.005-18.669-22.92-74.261-4.334-94.639
			c28.171-30.921,77.636-42.881,112.1-21.712c3.917,2.375,7.418,5.042,10.627,7.918c9.126,8.085,15.544,17.628,20.045,26.546v0.042
			c5.959,11.668,8.585,22.211,9.543,26.879C943.583,769.553,943.708,770.47,943.708,770.47z"/>
		<path style="fill:#102048;" d="M943.708,770.47c-18.043-42.701-57.933-44.281-77.928-26.045
			c-25.746,23.481,8.595,56.711-32.13,70.344l-10.877-1.292l-19.836-2.375l-8.709-56.592l31.963-34.047l38.547-13.877l48.924,7.876
			c9.126,8.085,15.544,17.628,20.045,26.546v0.042c5.959,11.668,8.585,22.211,9.543,26.879
			C943.583,769.553,943.708,770.47,943.708,770.47z"/>
		<path style="fill:#102048;" d="M809.893,708.714c-3.281-11.068-9.856-21.972-20.442-26.576c-4.127-1.795-8.904-2.52-13.144-1.01
			c-3.894,1.387-4.001,7.182-7.549,8.74c-2.146,0.942-3.155-0.359-5.166-1.075c-3.05-1.085-6.333-1.239-9.391-0.066
			c-2.488,0.954-4.715,2.799-6.142,5.06c-1.005,1.591-1.153,3.763-2.366,5.214c-1.587,1.897-3.336,1.701-5.498,2.421
			c-4.615,1.536-8.256,5.302-9.485,10.044c-0.592,2.286-0.614,4.637-0.152,6.953c0.605,3.029,3.641,5.435,3.026,8.681
			c-0.988,5.213-8.01,6.704-9.373,12.366c-0.746,3.099-0.192,6.463,1.462,9.182c1.599,2.627,4.564,4.331,4.922,7.643
			c0.339,3.14-1.928,5.872-3.304,8.715c-0.811,1.676-1.325,3.669-0.594,5.382c0.691,1.62,2.349,2.625,4.022,3.175
			c4.889,1.609,7.901,2.223,11.221,6.458c2.726,3.477,4.807,7.566,9.001,9.528c6.457,3.02,14.533,1.576,21.067-0.56
			c8.359-2.732,15.653-7.978,22.443-13.564c4.351-3.58,8.613-7.393,11.707-12.102c5.109-7.775,8.229-20.373,5.905-29.601
			c-0.889-3.529-3.273-5.384-2.599-9.21C810.506,718.601,811.697,714.797,809.893,708.714z"/>
		<path style="fill:#6694AD;" d="M865.269,1055.19l56.675,60.217c-6.417,8.96-14.169,20.586-22.003,34.588
			c-13.335,23.712-27.004,54.133-35.422,89.471l-254.579-8.585c20.795-65.384,87.596-269.247,211.031-313.712
			c56.008-20.212,100.265,14.502,131.936,58.467l-104.473,61.634L865.269,1055.19z"/>
		<path style="fill:#F9B384;" d="M1110.712,1164.612l114.558-21.601l57.351,35.437c5.175,3.19,2.916,11.166-3.163,11.168
			l-68.652-2.216l-70.615,13.767L1110.712,1164.612z"/>
		<path style="fill:#6694AD;" d="M1167.969,1134.883c7.439,29.749,3.581,47.284-8.2,69.62l-141.269-19.401
			c-23.055-3.166-44.327-14.142-60.267-31.097l-36.289-38.598l-73.511-78.136l104.473-61.634
			c38.131,52.924,73.991,106.063,73.991,106.063L1167.969,1134.883z"/>
		<path style="fill:#708CD5;" d="M873.918,1391.123c0,0-170.203,18.924-220.471-20.263c-45.963-35.83-50.007-109.391-43.519-139.966
			c0,0,95.923-37.907,301.829,18.594c49.556,13.598,89.466,50.329,107.661,98.389c31.995,84.51,81.618,221.637,98.311,301.148
			c0,0-109.108-7.227-139.235,22.901L873.918,1391.123z"/>
		<g>
			<rect x="1211.224" y="1187.993" style="fill:#FFFFFF;" width="119.404" height="16.524"/>
			<polygon style="fill:#102048;" points="1337.905,1204.517 1313.264,1204.517 1407.722,970.307 1432.364,970.307 			"/>
		</g>
		<path style="fill:#446373;" d="M921.944,1115.407c-6.417,8.96-14.169,20.586-22.003,34.588
			c-12.127-29.129-28.212-69.719-34.672-94.805L921.944,1115.407z"/>
		<g>
			<path style="fill:none;stroke:#FFFFFF;stroke-width:4.1673;stroke-miterlimit:10;" d="M869.238,820.031
				c-11.566-0.31-22.791-2.212-30.001-3.773c-3.578-0.775-7.282,0.326-9.806,2.977l-14.366,15.089l11.584,11.286
				c0,0,15.713,17.766,38.305,28.1C876.742,858.361,877.196,837.032,869.238,820.031z"/>
			<path style="fill:#FFFFFF;stroke:#FFFFFF;stroke-width:4.1673;stroke-miterlimit:10;" d="M948.633,791.273
				c-2.609,22.562-26.879,35.732-78.435,28.345c-0.778-0.112-1.376,0.644-1.065,1.366c7.237,16.758,7.236,37.864-4.179,52.727
				c16.478,7.538,36.609,11.129,57.005,0.951C964.169,853.598,948.633,791.273,948.633,791.273z"/>
		</g>
		<path style="fill:#6694AD;" d="M834.948,822.882c-1.531-9.711-8.252-18.171-17.723-20.807
			c-11.844-3.297-24.402,2.159-26.039,15.18c-2.501,19.892,15.066,40.207,46.914,25.622L834.948,822.882z"/>
		<g>
			<path style="fill:#102048;" d="M901.982,799.323c0.954,3.795-0.534,7.44-3.323,8.142c-2.79,0.702-5.826-1.806-6.78-5.601
				c-0.954-3.795,0.534-7.44,3.324-8.142C897.992,793.02,901.028,795.528,901.982,799.323z"/>
			<path style="fill:#102048;" d="M933.938,789.661c0.586,3.732-1.162,7.107-3.906,7.538c-2.744,0.431-5.443-2.245-6.029-5.977
				c-0.586-3.732,1.162-7.107,3.906-7.538C930.652,783.253,933.352,785.929,933.938,789.661z"/>
			<path style="fill:#102048;" d="M878.242,798.789c0.097-2.86,0.977-5.575,2.553-8.044c1.537-2.478,3.986-4.522,6.805-5.626
				c2.845-1.051,5.86-1.191,8.662-0.757c1.393,0.24,2.727,0.679,4.045,1.08c1.247,0.61,2.503,1.139,3.679,1.819l-0.566,1.527
				c-1.325-0.1-2.569-0.35-3.823-0.52c-1.254-0.067-2.485-0.223-3.689-0.264c-2.413-0.016-4.714,0.247-6.817,0.985
				c-2.094,0.772-3.882,2.137-5.47,3.854c-1.539,1.742-2.781,3.956-3.77,6.21L878.242,798.789z"/>
			<path style="fill:#102048;" d="M917.735,781.865c0.598-2.012,1.736-3.734,3.264-5.182c1.504-1.466,3.483-2.473,5.552-3.024
				c2.089-0.471,4.27-0.465,6.26,0.073c1.005,0.233,1.926,0.677,2.87,1.005c0.873,0.507,1.742,0.986,2.543,1.564l-0.561,1.224
				c-1.877-0.303-3.615-0.73-5.351-0.826c-1.727-0.147-3.379-0.024-4.976,0.281c-1.626,0.267-3.071,1.072-4.503,1.96
				c-1.405,0.921-2.713,2.179-3.879,3.497L917.735,781.865z"/>
		</g>
		<path style="fill:#E28B6D;" d="M821.452,824.755c-1.185-1.815-2.519-3.379-4.034-4.7c-1.516-1.31-3.195-2.377-4.955-3.061
			c-1.76-0.682-3.571-0.976-5.322-0.716c-1.746,0.292-3.429,1.207-5.085,2.614l-1.342-0.923c0.886-2.258,2.865-4.337,5.468-5.223
			c2.594-0.915,5.442-0.582,7.811,0.383c2.394,0.973,4.44,2.558,6.004,4.478c1.562,1.915,2.679,4.206,2.992,6.61L821.452,824.755z"
			/>
		<path style="fill:#1F3C88;" d="M834.565,1393.407l21.83-3.291c7.254-1.215,14.533-2.237,21.771-3.553l21.768-3.651
			c7.266-1.179,14.531-2.413,21.83-3.469l0.36,1.589c-7.098,2.14-14.287,3.843-21.503,5.455c-7.228,1.541-14.492,2.917-21.782,4.15
			c-7.31,1.103-14.624,2.228-21.988,2.969c-7.36,0.763-14.751,1.308-22.158,1.426L834.565,1393.407z"/>
		<g>
			<path style="fill:#D3DFFF;" d="M1184.248,595.336c-62.824,0-113.753,50.929-113.753,113.753c0,25.087,8.139,48.264,21.896,67.072
				v46.616l30.759-17.758c17.653,11.267,38.604,17.823,61.099,17.823c62.824,0,113.753-50.929,113.753-113.753
				C1298.001,646.265,1247.072,595.336,1184.248,595.336z"/>
			<g>
				<circle style="fill:#FFFFFF;" cx="1131.938" cy="709.089" r="12.857"/>
				<circle style="fill:#FFFFFF;" cx="1184.248" cy="709.089" r="12.857"/>
				<circle style="fill:#FFFFFF;" cx="1236.558" cy="709.089" r="12.857"/>
			</g>
		</g>
	</g>
	<g>
		<g>
			<path style="fill:#102048;" d="M2238.888,801.595l-20.541,20.71l-104.615-27.114c-25.997-20.228-41.924-55.616-33.699-84.229
				c10.576-36.789,53.132-63.746,81.55-47.336c0,0-19.967,14.136-17.146,26.467c20.344-23.05,76.411-14.369,103.523,16.253
				C2261.919,722.114,2260.455,759.658,2238.888,801.595z"/>
			<path style="fill:#E28B6D;" d="M2250.8,921.98l-91.198,17.22l-22.294-107.682l76.304-2.193
				C2213.89,829.707,2250.8,921.98,2250.8,921.98z"/>
			<path style="fill:#F9B384;" d="M2150.958,878.413c46.322,4.731,71.708-47.068,71.708-47.068l0.361-26.687l0.055-2.617
				l0.607-46.224l-39.123-37.835l-72.433,33c-0.032,0.047,0.006,0.04,0.006,0.04c-2.184,8.985-3.877,18.127-5.039,27.175
				c-0.586,4.626-1.052,9.272-1.34,13.805C2102.859,836.352,2121.172,875.37,2150.958,878.413z"/>
			<path style="fill:#102048;" d="M2102.714,772.735c11.029-26.41,35.123-40.231,55.235-25.441
				c29.13,21.422,44.18,4.984,47.137,7.879c20.702,20.262,17.995,46.868,17.995,46.868l13.25-7.79l2.698-12.06l0.237-55.365
				l-33.759-27.263l-37.015-6.965l-43.511,15.459c-7.217,9.19-23.081,25.615-23.081,25.615
				C2098.058,745.764,2102.714,772.735,2102.714,772.735z"/>
			<g>
				<path style="fill:none;stroke:#FFFFFF;stroke-width:3.9221;stroke-miterlimit:10;" d="M2181.158,814.86
					c10.512-2.938,25.545-12.668,34.372-18.594c3.419-2.296,8.08-0.778,9.498,3.088l7.407,20.2l-8.809,12.414
					c0,0-11.532,19.113-30.693,32.512c-13.058-11.795-17.701-30.778-13.93-47.444
					C2179.248,815.956,2180.093,815.157,2181.158,814.86z"/>
				<path style="fill:#FFFFFF;stroke:#FFFFFF;stroke-width:3.9221;stroke-miterlimit:10;" d="M2105.579,806.74
					c17.853,20.545,48.238,17.057,73.323,8.553c0.701-0.238,1.383,0.362,1.217,1.084c-3.857,16.741-0.274,36.279,12.814,48.102
					c-13.976,9.773-32.077,16.765-52.611,10.551C2105.458,864.479,2105.579,806.74,2105.579,806.74z"/>
			</g>
			<path style="fill:#F9B384;" d="M2210.343,809.079c7.787-17.968,29.728-28.469,37.743-11.006
				c8.015,17.463-1.331,41.585-33.359,38.158L2210.343,809.079z"/>
			<g>
				<path style="fill:#102048;" d="M2152.457,800.844c-0.264,3.904,1.849,7.227,4.719,7.421c2.87,0.194,5.411-2.814,5.675-6.718
					c0.264-3.904-1.849-7.227-4.719-7.421C2155.262,793.931,2152.721,796.939,2152.457,800.844z"/>
				<path style="fill:#102048;" d="M2119.292,797.023c0.087,3.777,2.408,6.786,5.185,6.723c2.777-0.064,4.957-3.178,4.87-6.954
					c-0.087-3.777-2.408-6.786-5.185-6.722C2121.385,790.132,2119.205,793.246,2119.292,797.023z"/>
				<path style="fill:#102048;" d="M2174.188,796.639c-1.375-2.042-2.99-4-4.815-5.44c-1.869-1.407-3.87-2.432-6.069-2.819
					c-2.2-0.352-4.511-0.201-6.883,0.244c-1.177,0.255-2.362,0.627-3.583,0.917c-1.204,0.39-2.384,0.858-3.67,1.192l-0.829-1.402
					c1.036-0.879,2.178-1.623,3.296-2.445c1.226-0.629,2.46-1.299,3.788-1.782c2.68-0.926,5.672-1.325,8.658-0.797
					c2.971,0.585,5.744,2.161,7.698,4.325c1.99,2.149,3.339,4.665,3.944,7.462L2174.188,796.639z"/>
				<path style="fill:#102048;" d="M2132.751,787.247c-1.383-1.089-2.893-2.094-4.44-2.75c-1.566-0.619-3.132-1.155-4.78-1.128
					c-1.625-0.016-3.273,0.157-4.947,0.609c-1.691,0.403-3.325,1.132-5.118,1.764l-0.77-1.104c0.686-0.711,1.455-1.336,2.224-1.991
					c0.87-0.492,1.698-1.092,2.645-1.5c1.863-0.883,4.008-1.277,6.148-1.186c2.134,0.174,4.26,0.813,6.001,1.988
					c1.762,1.153,3.188,2.645,4.135,4.519L2132.751,787.247z"/>
			</g>
			<path style="fill:#E28B6D;" d="M2222.949,809.142c0.375-1.985,1.152-3.855,2.18-5.62c1.002-1.786,2.358-3.421,4.155-4.769
				c1.739-1.289,4.409-2.366,6.976-1.494c2.522,0.824,3.908,2.851,4.677,4.718l-1.326,0.946c-1.481-1.156-2.969-1.979-4.197-2.103
				c-1.206-0.144-2.426,0.419-3.716,1.305c-2.598,1.851-4.847,4.787-7.271,7.7L2222.949,809.142z"/>
		</g>
		<path style="fill:#E28B6D;" d="M1931.227,1134.558l-119.097-11.933l-51.134,53.643c-6.62,6.224-1.814,12.292,4.387,11.695
			l66.112-19.039l73.459,7.842L1931.227,1134.558z"/>
		<path style="fill:#102048;" d="M2320.513,1592.478c0,0-42.179,65.522-114.475,69.302l17.68-90.542L2320.513,1592.478z"/>
		<path style="fill:#102048;" d="M2142.725,928.609c-54.337,40.171-86.857,114.493-131.614,140.472
			c-19.643,11.402-135.184,46.856-135.184,46.856l6.363,56.948l192.371-77.143l71.633-91.541L2142.725,928.609z"/>
		<g>
			<path style="fill:#102048;" d="M1855.777,1619.515c-0.369-0.848,43.855,43.326,132.932,68.927l-28.692-84.653L1855.777,1619.515z
				"/>
			<g>
				<polygon style="fill:#F9B384;" points="1901.333,1597.333 1974.667,1630.874 1928.854,1704.234 1862.433,1680.605 				"/>
				<path style="fill:#446373;" d="M1916.666,1781.564l-147.907-46.322c-3.801-1.191-3.716-6.599,0.12-7.67l79.098-22.072
					l14.537-25.155l66.557,23.195l0,0c-0.037,23.124-3.282,46.131-9.642,68.364L1916.666,1781.564z"/>
			</g>
			<path style="fill:#102048;" d="M1855.777,1619.515l121.551-227.938c36.394-69.15,56.504-113.675,119.247-136.369
				c47.045-17.016,134.622-19.792,191.756-18.683l2.167,106.901l-160.786,101.935l-141.002,243.08
				C1950.607,1652.046,1905.776,1633.09,1855.777,1619.515z"/>
		</g>
		<g>
			
				<line style="fill:none;stroke:#102048;stroke-width:4.1673;stroke-miterlimit:10;" x1="2477.03" y1="1411.731" x2="2477.03" y2="1763.568"/>
			<path style="fill:#7DA1FB;" d="M2426.525,1206.063c48.618,0,72.233-134.742,135.259-115.59
				c170.64,51.852,45.323,505.925-297.997,302.197L2426.525,1206.063z"/>
			<path style="fill:#1F3C88;" d="M2556.736,1782.33c0-20.724-35.686-37.524-79.706-37.524c-44.021,0-79.706,16.8-79.706,37.524
				H2556.736z"/>
		</g>
		<g>
			<polygon style="fill:#F9B384;" points="2202.976,1597.184 2263.787,1553.087 2306.232,1627.677 2251.331,1671.903 			"/>
			<path style="fill:#446373;" d="M2365.742,1678.54l-117.205,102.053c-2.911,2.535-7.335-0.279-6.273-3.99l22.712-79.351
				l-13.824-25.554l54.603-44.57l0,0c19.684,12.136,37.589,26.944,53.203,44L2365.742,1678.54z"/>
		</g>
		<path style="fill:#708CD5;" d="M2460.333,1230.882l-272.546,6.139c-9.096-40.331-24.257-74.766-38.563-100.918
			c-7.26-13.234-14.306-24.352-20.285-33.084l61.325-68.734l14.007-15.664l-93.653-70.759
			c32.456-47.488,67.152-62.361,117.015-51.548C2393.648,932.314,2450.671,1156.246,2460.333,1230.882z"/>
		<path style="fill:#F9B384;" d="M1926.618,1161.859l-92.379-21.098l-73.454,39.496c-4.948,3.94-0.976,8.334,5.226,7.736h72.177
			l66.385,10.473L1926.618,1161.859z"/>
		<g>
			
				<rect x="1718.783" y="1187.993" transform="matrix(-1 -1.224647e-16 1.224647e-16 -1 3556.9705 2392.51)" style="fill:#FFFFFF;" width="119.404" height="16.524"/>
			<polygon style="fill:#102048;" points="1711.506,1204.517 1736.147,1204.517 1641.689,970.307 1617.047,970.307 			"/>
		</g>
		<path style="fill:#1F3C88;" d="M2190.264,1034.284c-5.381,25.747-16.399,66.168-41.04,101.818
			c-7.26-13.234-14.306-24.352-20.285-33.084L2190.264,1034.284z"/>
		<path style="fill:#708CD5;" d="M1877.405,1129.165c-9.554,26.274-5.508,51.021,8.42,75.352l154.283-24.124
			c21.325-3.087,41.001-13.788,55.745-30.318l39.647-44.448l68.788-87.008l-93.67-70.759
			c-39.075,57.166-72.796,132.966-72.796,132.966L1877.405,1129.165z"/>
		<path style="fill:#1F3C88;" d="M2416.785,1370.861c-37.464,29.213-141.521,26.129-192.111,22.67l95.839,198.947
			c-77.803,15.377-114.475,69.302-114.475,69.302s-237.817-250.048-174.267-355.511c72.843-120.883,428.562-75.386,428.562-75.386
			C2466.792,1261.47,2462.75,1335.022,2416.785,1370.861z"/>
		<path style="fill:#708CD5;" d="M2290.499,1396.483c-11.186,0.489-22.377,0.384-33.555,0.117
			c-11.182-0.216-22.338-0.914-33.498-1.492c-11.152-0.713-22.291-1.588-33.419-2.585c-11.122-1.072-22.235-2.212-33.313-3.76
			l0.148-1.622c11.16,0.449,22.302,1.115,33.442,1.752l33.4,2.094l33.388,2.097c11.13,0.653,22.26,1.26,33.403,1.769
			L2290.499,1396.483z"/>
		<g>
			<path style="fill:#C6EAE9;" d="M1938.379,711.547c13.757-18.808,21.896-41.985,21.896-67.072
				c0-62.824-50.929-113.753-113.753-113.753c-62.824,0-113.753,50.929-113.753,113.753c0,62.824,50.929,113.753,113.753,113.753
				c22.495,0,43.446-6.556,61.099-17.824l30.758,17.758V711.547z"/>
			<g>
				
					<ellipse transform="matrix(0.9992 -0.0399 0.0399 0.9992 -24.1906 76.2365)" style="fill:#FFFFFF;" cx="1898.832" cy="644.475" rx="12.857" ry="12.857"/>
				<circle style="fill:#FFFFFF;" cx="1846.522" cy="644.475" r="12.857"/>
				<circle style="fill:#FFFFFF;" cx="1794.212" cy="644.475" r="12.857"/>
			</g>
		</g>
	</g>
	
		<line style="fill:none;stroke:#102048;stroke-width:4.1673;stroke-miterlimit:10;" x1="386.741" y1="1783.372" x2="2689.158" y2="1783.372"/>
</g>
</svg>
